<svg width="1392" height="402" xmlns="http://www.w3.org/2000/svg" xmlns:xlink="http://www.w3.org/1999/xlink" overflow="hidden">
	<defs>
		<clipPath id="clip0">
			<path d="M12 184 1404 184 1404 586 12 586Z" fill-rule="evenodd" clip-rule="evenodd"/>
		</clipPath>
		<clipPath id="clip1">
			<path d="M20 285 123 285 123 412 20 412Z" fill-rule="evenodd" clip-rule="evenodd"/>
		</clipPath>
		<clipPath id="clip2">
			<path d="M20 285 124 285 124 412 20 412Z" fill-rule="evenodd" clip-rule="evenodd"/>
		</clipPath>
		<clipPath id="clip3">
			<path d="M20 285 124 285 124 412 20 412Z" fill-rule="evenodd" clip-rule="evenodd"/>
		</clipPath>
	</defs>
	<g clip-path="url(#clip0)" transform="translate(-12 -184)">
		<g clip-path="url(#clip1)">
			<g clip-path="url(#clip2)">
				<g clip-path="url(#clip3)">
					<path d="M6.14219 124.927 0.0362396 124.709 0.0362396 90.172 0.0362396 55.6347 14.9991 47.4553C23.2286 42.9567 30.2091 39.177 30.5114 39.056 30.8137 38.935 31.061 43.0194 31.061 48.1323 31.061 53.2454 31.1592 57.4288 31.2791 57.4288 32.0484 57.4288 67.6412 37.7819 67.798 37.2707 67.9051 36.9214 59.7573 32.1246 49.6919 26.6112L31.391 16.5868 31.061 26.0927 30.7309 35.5987 15.5486 27.0953 0.366297 18.5921 0.183148 9.29605 0 0 28.5675 0.0115044C60.7298 0.0245096 62.7611 0.236944 71.6572 4.52003 84.4091 10.6595 90.251 19.8967 90.949 35.0239 91.5603 48.2722 88.4769 58.5863 81.8806 65.3585 78.0936 69.2463 71.7895 72.4622 66.7954 73.0537 64.9312 73.2745 63.4092 73.6365 63.4131 73.8582 63.4172 74.08 72.3284 85.6097 83.2162 99.4799 94.1038 113.35 103.012 124.861 103.012 125.059 103.012 125.257 94.0264 125.407 83.0439 125.392L63.0759 125.365 48.5537 102.164C40.5665 89.4031 33.5215 78.3505 32.8982 77.6022 31.8232 76.3116 31.7639 77.5043 31.7431 100.83L31.7211 125.419 21.9845 125.282C16.6295 125.207 9.5004 125.047 6.14214 124.927Z" fill="#FFFFFF" transform="matrix(1 0 -0 1.01301 20 285)"/>
				</g>
			</g>
		</g>
		<text fill="#FFFFFF" font-family="Aharoni,Aharoni_MSFontService,sans-serif" font-weight="700" font-size="191" transform="translate(126.672 412)">YUUGANIME</text>
	</g>
</svg>