<svg width="815.095" height="992.395" xmlns="http://www.w3.org/2000/svg" xmlns:xlink="http://www.w3.org/1999/xlink" id="svg3852" overflow="hidden">
    <defs id="defs3856"></defs>
    <path d="M48.6008 988.503 0.28675 986.779 0.28675 713.497 0.28675 440.216 118.682 375.496C183.799 339.9 239.033 309.993 241.425 309.035 243.817 308.078 245.774 340.396 245.774 380.853 245.774 421.311 246.551 454.412 247.5 454.412 253.587 454.412 535.219 298.954 536.46 294.909 537.307 292.145 472.837 254.19 393.193 210.564L248.385 131.245 245.774 206.462 243.162 281.679 123.03 214.395 2.89837 147.112 1.44918 73.5561 0 0 226.044 0.09103C480.532 0.193935 496.605 1.87485 566.996 35.7653 667.897 84.3447 714.122 157.435 719.645 277.131 724.482 381.96 700.084 463.571 647.89 517.157 617.925 547.92 568.043 573.366 528.527 578.046 513.776 579.793 501.733 582.658 501.764 584.412 501.796 586.167 572.307 677.397 658.458 787.147 744.608 896.896 815.095 987.975 815.095 989.543 815.095 991.112 743.995 992.298 657.095 992.179L499.096 991.963 384.187 808.383C320.987 707.413 265.243 619.958 260.311 614.037 251.805 603.825 251.336 613.262 251.171 797.833L250.997 992.395 173.955 991.311C131.583 990.715 75.1731 989.451 48.6004 988.503Z" id="path3730" stroke-width="5.22313" fill="#FFFFFF"/>
    </svg>